<?xml version="1.0" encoding="utf-8"?><svg viewBox="0 0 128 128" xmlns="http://www.w3.org/2000/svg" xmlns:xlink="http://www.w3.org/1999/xlink"><style>:root>svg{display:none}:root>svg:target{display:block}</style><svg viewBox="0 0 40 40" id="01" xmlns="http://www.w3.org/2000/svg"><path d="M32.903 2.344c-.853 0-1.654.23-2.344.63V1.172C30.56.525 30.035 0 29.387 0h-18.75C9.99 0 9.465.525 9.465 1.172v1.817a4.657 4.657 0 00-2.368-.645A4.693 4.693 0 002.409 7.03a9.79 9.79 0 001.69 5.51c1.881 2.778 4.202 3.5 6.122 4.267a10.603 10.603 0 006.138 5.977l-.864 5.496h-.17a3.52 3.52 0 00-3.516 3.516v5.86h-1.172a1.172 1.172 0 000 2.343h18.75a1.172 1.172 0 000-2.344h-1.172v-5.86a3.52 3.52 0 00-3.515-3.515h-.17l-.864-5.496a10.604 10.604 0 006.143-5.988c1.814-.726 4.191-1.45 6.092-4.257a9.79 9.79 0 001.69-5.509 4.693 4.693 0 00-4.688-4.687zM9.457 13.979A7.447 7.447 0 014.753 7.03a2.346 2.346 0 012.344-2.343A2.346 2.346 0 019.44 7.03c0 .083.008.163.025.24v5.62c0 .376.02.748.059 1.115l-.068-.027zm16.415 23.677H14.153v-2.343h11.719v2.343zM24.7 30.625c.646 0 1.172.526 1.172 1.172v1.172H14.153v-1.172c0-.646.526-1.172 1.172-1.172H24.7zm-6.833-2.344l.776-4.932a10.603 10.603 0 002.74 0l.775 4.932h-4.29zm10.348-15.39c0 4.523-3.68 8.203-8.203 8.203s-8.203-3.68-8.203-8.203V7.03h16.407v5.86zm0-8.204H11.81V2.345h16.407v2.344zm2.328 9.292l-.041.016c.038-.363.057-.731.057-1.104V7.03a2.347 2.347 0 012.344-2.343 2.346 2.346 0 012.344 2.343 7.447 7.447 0 01-4.704 6.948z"/></svg><svg viewBox="0 0 40 40" id="02" xmlns="http://www.w3.org/2000/svg"><path d="M37.857 14.174c-.527-1.634-.303-4.088-1.674-5.982-1.383-1.91-3.788-2.452-5.146-3.445-1.343-.983-2.593-3.12-4.853-3.858-2.197-.717-4.443.255-6.184.255-1.741 0-3.987-.972-6.184-.256-2.26.738-3.51 2.877-4.853 3.859-1.357.992-3.763 1.536-5.145 3.445-1.371 1.893-1.148 4.352-1.675 5.982C1.64 15.726 0 17.588 0 20c0 2.413 1.64 4.269 2.143 5.826.527 1.634.302 4.088 1.674 5.982 1.383 1.91 3.788 2.452 5.146 3.445 1.343.983 2.593 3.121 4.853 3.859 2.195.716 4.445-.256 6.184-.256 1.737 0 3.992.97 6.184.256 2.26-.738 3.51-2.876 4.853-3.859 1.357-.992 3.763-1.536 5.145-3.445 1.371-1.892 1.148-4.351 1.675-5.982C38.36 24.274 40 22.412 40 20c0-2.413-1.639-4.268-2.143-5.826zm-2.973 10.691c-.615 1.905-.454 4.036-1.232 5.11-.789 1.09-2.86 1.586-4.46 2.756-1.58 1.156-2.689 2.99-3.978 3.41-1.22.398-3.206-.41-5.214-.41-2.022 0-3.989.81-5.214.41-1.289-.42-2.396-2.253-3.979-3.41-1.589-1.163-3.672-1.67-4.459-2.756-.775-1.07-.62-3.217-1.232-5.11-.6-1.854-1.991-3.46-1.991-4.865 0-1.406 1.39-3.006 1.991-4.865.615-1.904.454-4.036 1.232-5.11.788-1.088 2.862-1.587 4.46-2.756 1.586-1.16 2.687-2.988 3.978-3.41 1.218-.397 3.212.41 5.214.41 2.026 0 3.988-.81 5.214-.41 1.289.421 2.396 2.253 3.979 3.41 1.589 1.163 3.672 1.67 4.459 2.756.775 1.071.62 3.215 1.232 5.11.599 1.854 1.991 3.46 1.991 4.865 0 1.406-1.39 3.007-1.991 4.865zm-7.685-9.88c.61.61.61 1.6 0 2.21l-7.821 7.82c-.61.61-1.6.61-2.21 0l-4.367-4.366a1.562 1.562 0 112.21-2.21l3.262 3.262 6.716-6.716c.61-.61 1.6-.61 2.21 0z"/></svg><svg viewBox="0 0 40 38" id="03" xmlns="http://www.w3.org/2000/svg"><path d="M36.899 19.735V1.52c0-.65-.527-1.177-1.177-1.177H4.197C3.547.343 3.02.87 3.02 1.52v19.667a3.562 3.562 0 00-1.613.667c-1.548 1.098-1.914 3.553-.618 5.068l5.3 6.425c3.281 3.84 6.766 4.31 11.947 4.31 4.446 0 6.434.02 10.308-.863l3.773-.903c.612.855 1.583 1.408 2.675 1.408h1.859c1.846 0 3.349-1.583 3.349-3.528V23.252c0-1.857-1.37-3.383-3.101-3.517zm-5.29 2.42l-1.567-.796a9.322 9.322 0 00-8.177-.132c-.714.28-2.272 1.224-3.08 1.192h-5.44a3.276 3.276 0 00-3.273 3.273v.858l-.03-.032-3.886-4.217a3.585 3.585 0 00-.783-.64V9.987h9.63v4.314c0 .65.527 1.176 1.176 1.176h7.425c.65 0 1.177-.527 1.177-1.176V9.987h9.764v9.748c-1.374.106-2.52 1.09-2.935 2.42zM17.357 9.987h5.071v3.137h-5.071V9.987zm17.19-2.353H24.78V2.696h9.764v4.938zM22.426 2.696v4.938h-5.071V2.696h5.071zm-7.424 0v4.938h-9.63V2.696h9.63zm12.795 31.809c-3.58.82-5.735.786-9.72.786-4.863 0-7.213-.078-10.173-3.442l-5.3-6.425c-.922-1.2.748-2.617 1.82-1.528l3.885 4.217c1.027 1.083 2.32 1.68 3.912 1.714h10.77a1.177 1.177 0 100-2.353H12.426v-1.782a.92.92 0 01.92-.92h5.44c1.225.088 2.994-.935 4.073-1.411a6.98 6.98 0 016.12.097l2.465 1.252v8.923l-3.645.872zm9.849-.734c0 .648-.447 1.175-.996 1.175h-1.859c-.549 0-.995-.527-.995-1.175V23.252c0-.648.446-1.175.995-1.175h1.859c.549 0 .996.527.996 1.175v10.519z"/></svg><svg viewBox="0 0 36 40" id="04" xmlns="http://www.w3.org/2000/svg"><path d="M34.462 15.975C34.2 7.122 26.916 0 18 0S1.8 7.122 1.537 15.975L.353 17.16v8.033l1.176 1.177v5.473a5.81 5.81 0 005.804 5.804h1.458A3.535 3.535 0 0012.118 40h2.353a3.535 3.535 0 003.328-2.356l.201.003c5.681 0 10.435-4.048 11.528-9.412h3.077l3.042-3.042V17.16l-1.185-1.185zM18 2.353c6.983 0 12.797 5.096 13.92 11.765h-2.392C28.435 8.754 23.681 4.706 18 4.706S7.565 8.754 6.472 14.118H4.079C5.203 7.449 11.017 2.353 18 2.353zm9.114 11.765c-3.803-.012-6.49.22-8.704-3.018l-1.076-1.572-.924 1.666c-1.347 2.426-3.16 2.924-5.469 2.924H8.886c1.047-4.055 4.737-7.06 9.114-7.06 4.378 0 8.067 3.005 9.114 7.06zM6.235 25.882H4.37L2.706 24.22v-6.085l1.664-1.663h1.865v9.411zm-2.353 5.961v-3.608H6.47a11.661 11.661 0 003.072 5.826c-.33.352-.587.77-.751 1.233H7.333a3.455 3.455 0 01-3.45-3.45zm10.589 5.804h-2.353a1.178 1.178 0 010-2.353h2.353a1.178 1.178 0 010 2.353zm12.94-11.765c0 5.19-4.221 9.412-9.411 9.412-.067 0-.136-.001-.203-.003a3.535 3.535 0 00-3.326-2.35c-2.416.005-2.378-.012-2.679.016a9.357 9.357 0 01-3.204-7.075v-9.411h2.353c2.082 0 4.618-.344 6.58-2.733 2.59 2.714 5.755 2.733 8.596 2.733h1.295v9.411zm5.883-1.663l-1.664 1.663h-1.865v-9.411h1.865l1.664 1.663v6.085z"/></svg><svg data-name="Livello 1" viewBox="0 0 128 128" id="setting" xmlns="http://www.w3.org/2000/svg"><path d="M64 39a25 25 0 1025 25 25 25 0 00-25-25zm0 44a19 19 0 1119-19 19 19 0 01-19 19z"/><path d="M121 48h-8.93a1 1 0 01-.94-.68 49.9 49.9 0 00-2-4.85 1 1 0 01.18-1.15l6.31-6.32a7 7 0 000-9.9l-12.73-12.72a7 7 0 00-9.9 0l-6.31 6.31a1 1 0 01-1.15.18 49.76 49.76 0 00-4.85-2 1 1 0 01-.68-.94V7a7 7 0 00-7-7H55a7 7 0 00-7 7v8.93a1 1 0 01-.68.94 49.9 49.9 0 00-4.85 2 1 1 0 01-1.15-.18L35 12.38a7 7 0 00-9.9 0L12.38 25.11a7 7 0 000 9.9l6.31 6.31a1 1 0 01.18 1.15 49.76 49.76 0 00-2 4.85 1 1 0 01-.94.68H7a7 7 0 00-7 7v18a7 7 0 007 7h8.93a1 1 0 01.94.68 49.9 49.9 0 002 4.85 1 1 0 01-.18 1.15L12.38 93a7 7 0 000 9.9l12.73 12.73a7 7 0 009.9 0l6.31-6.31a1 1 0 011.15-.18 49.76 49.76 0 004.85 2 1 1 0 01.68.94V121a7 7 0 007 7h18a7 7 0 007-7v-8.93a1 1 0 01.68-.94 49.9 49.9 0 004.85-2 1 1 0 011.15.18l6.32 6.31a7 7 0 009.9 0l12.73-12.73a7 7 0 000-9.9l-6.31-6.31a1 1 0 01-.18-1.15 49.76 49.76 0 002-4.85 1 1 0 01.94-.68H121a7 7 0 007-7V55a7 7 0 00-7-7zm1 25a1 1 0 01-1 1h-8.93a7 7 0 00-6.6 4.69 43.9 43.9 0 01-1.76 4.26 7 7 0 001.35 8l6.31 6.31a1 1 0 010 1.41l-12.72 12.71a1 1 0 01-1.41 0l-6.31-6.31a7 7 0 00-8-1.35 43.88 43.88 0 01-4.27 1.76 7 7 0 00-4.68 6.6V121a1 1 0 01-1 1H55a1 1 0 01-1-1v-8.93a7 7 0 00-4.69-6.6 43.9 43.9 0 01-4.26-1.76 7 7 0 00-8 1.35l-6.31 6.31a1 1 0 01-1.41 0L16.62 98.65a1 1 0 010-1.41l6.31-6.31a7 7 0 001.35-8 43.88 43.88 0 01-1.76-4.27A7 7 0 0015.93 74H7a1 1 0 01-1-1V55a1 1 0 011-1h8.93a7 7 0 006.6-4.69 43.9 43.9 0 011.76-4.26 7 7 0 00-1.35-8l-6.31-6.31a1 1 0 010-1.41l12.72-12.71a1 1 0 011.41 0l6.31 6.31a7 7 0 008 1.35 43.88 43.88 0 014.27-1.76A7 7 0 0054 15.93V7a1 1 0 011-1h18a1 1 0 011 1v8.93a7 7 0 004.69 6.6 43.9 43.9 0 014.26 1.76 7 7 0 008-1.35l6.31-6.31a1 1 0 011.41 0l12.73 12.73a1 1 0 010 1.41l-6.31 6.31a7 7 0 00-1.35 8 43.88 43.88 0 011.76 4.27 7 7 0 006.6 4.68h8.9a1 1 0 011 1z"/></svg></svg>